<svg xmlns="http://www.w3.org/2000/svg" width="1400" height="1400" viewBox="0 0 370.417 370.417"><defs><clipPath id="a" clipPathUnits="userSpaceOnUse"><path d="M-149.087-73.324h15.87v26.608h-15.87z" style="opacity:.999;fill:red;stroke:none;stroke-width:5.78663;stroke-miterlimit:4;stroke-dasharray:none;stroke-opacity:1"/></clipPath></defs><g transform="translate(22.854 -39.265)"><circle cx="161.572" cy="224.472" r="141.823" style="opacity:.999;fill:#fff;stroke:none;stroke-width:34.6492;stroke-miterlimit:4;stroke-dasharray:none;stroke-opacity:1"/><path d="M4447.501-565.773v.003l-9.492 8.535 2.274 2.528c1.192 1.326 3.251 1.435 4.637.189l10.547-9.483a3.286 3.286 0 0 0 .25-4.692 3.286 3.286 0 0 0-4.693-.25z" style="stroke-width:.810474" transform="translate(-15222.02 2168.839)scale(3.46492)"/><path d="M-136.312-47.986h13.148a3.047 3.047 0 0 0 3.08-3.08 3.047 3.047 0 0 0-3.08-3.08h-10.067v-15.852a3.047 3.047 0 0 0-3.08-3.08 3.047 3.047 0 0 0-3.08 3.08v19.007c0 1.653 1.351 3.005 3.08 3.005z" clip-path="url(#a)" style="stroke-width:.751269" transform="rotate(-41.959 376.144 -858.256)scale(3.73798)"/><path d="M161.576 43.313c-99.819 0-181.164 81.339-181.164 181.157 0 99.819 81.338 181.164 181.157 181.164 99.818 0 181.164-81.345 181.164-181.164 0-15.653-2.008-30.847-5.766-45.348-6.388-20.892-44.678-10.516-39.136 6.429 3.34 13.979 5.655 22.86 5.461 38.92-.93 77.255-63.22 141.722-141.723 141.722-78.503 0-141.717-63.22-141.717-141.723 0-78.503 63.221-141.716 141.724-141.716h182.72V43.313Z" style="color:#000;font-style:normal;font-variant:normal;font-weight:400;font-stretch:normal;font-size:medium;line-height:normal;font-family:sans-serif;font-variant-ligatures:normal;font-variant-position:normal;font-variant-caps:normal;font-variant-numeric:normal;font-variant-alternates:normal;font-variant-east-asian:normal;font-feature-settings:normal;font-variation-settings:normal;text-indent:0;text-align:start;text-decoration:none;text-decoration-line:none;text-decoration-style:solid;text-decoration-color:#000;letter-spacing:normal;word-spacing:normal;text-transform:none;writing-mode:lr-tb;direction:ltr;text-orientation:mixed;dominant-baseline:auto;baseline-shift:baseline;text-anchor:start;white-space:normal;shape-padding:0;shape-margin:0;inline-size:0;clip-rule:nonzero;display:inline;overflow:visible;visibility:visible;opacity:.999;isolation:auto;mix-blend-mode:normal;color-interpolation:sRGB;color-interpolation-filters:linearRGB;solid-color:#000;solid-opacity:1;vector-effect:none;fill:#8e8fb4;fill-opacity:1;fill-rule:nonzero;stroke:none;stroke-width:3.94418;stroke-linecap:butt;stroke-linejoin:miter;stroke-miterlimit:4;stroke-dasharray:none;stroke-dashoffset:0;stroke-opacity:1;color-rendering:auto;image-rendering:auto;shape-rendering:auto;text-rendering:auto;enable-background:accumulate;stop-color:#000"/></g></svg>